<mxfile host="Electron" agent="Mozilla/5.0 (Windows NT 10.0; Win64; x64) AppleWebKit/537.36 (KHTML, like Gecko) draw.io/25.0.1 Chrome/128.0.6613.186 Electron/32.2.6 Safari/537.36" version="25.0.1">
  <diagram name="Pagina-1" id="lJMiuOfBH1eb-aQv7J_N">
    <mxGraphModel dx="3243" dy="1205" grid="1" gridSize="10" guides="1" tooltips="1" connect="1" arrows="1" fold="1" page="1" pageScale="1" pageWidth="1169" pageHeight="827" math="0" shadow="0">
      <root>
        <mxCell id="0" />
        <mxCell id="1" parent="0" />
        <mxCell id="Ideb3Kr1neXmDtbUBlHp-2" value="" style="shape=mxgraph.cisco.routers.router;sketch=0;html=1;pointerEvents=1;dashed=0;fillColor=#036897;strokeColor=#ffffff;strokeWidth=2;verticalLabelPosition=bottom;verticalAlign=top;align=center;outlineConnect=0;" vertex="1" parent="1">
          <mxGeometry x="540" y="360" width="58" height="40" as="geometry" />
        </mxCell>
        <mxCell id="Ideb3Kr1neXmDtbUBlHp-3" value="" style="shape=mxgraph.cisco.switches.workgroup_switch;sketch=0;html=1;pointerEvents=1;dashed=0;fillColor=#036897;strokeColor=#ffffff;strokeWidth=2;verticalLabelPosition=bottom;verticalAlign=top;align=center;outlineConnect=0;" vertex="1" parent="1">
          <mxGeometry x="720" y="360" width="60" height="40" as="geometry" />
        </mxCell>
        <mxCell id="Ideb3Kr1neXmDtbUBlHp-4" value="" style="shape=mxgraph.cisco.switches.workgroup_switch;sketch=0;html=1;pointerEvents=1;dashed=0;fillColor=#036897;strokeColor=#ffffff;strokeWidth=2;verticalLabelPosition=bottom;verticalAlign=top;align=center;outlineConnect=0;" vertex="1" parent="1">
          <mxGeometry x="370" y="360" width="71" height="35" as="geometry" />
        </mxCell>
        <mxCell id="Ideb3Kr1neXmDtbUBlHp-5" value="" style="shape=mxgraph.cisco.computers_and_peripherals.pc;sketch=0;html=1;pointerEvents=1;dashed=0;fillColor=#036897;strokeColor=#ffffff;strokeWidth=2;verticalLabelPosition=bottom;verticalAlign=top;align=center;outlineConnect=0;" vertex="1" parent="1">
          <mxGeometry x="40" y="40" width="40" height="40" as="geometry" />
        </mxCell>
        <mxCell id="Ideb3Kr1neXmDtbUBlHp-6" value="" style="shape=mxgraph.cisco.computers_and_peripherals.pc;sketch=0;html=1;pointerEvents=1;dashed=0;fillColor=#036897;strokeColor=#ffffff;strokeWidth=2;verticalLabelPosition=bottom;verticalAlign=top;align=center;outlineConnect=0;" vertex="1" parent="1">
          <mxGeometry x="40" y="120" width="40" height="40" as="geometry" />
        </mxCell>
        <mxCell id="Ideb3Kr1neXmDtbUBlHp-7" value="" style="shape=mxgraph.cisco.computers_and_peripherals.pc;sketch=0;html=1;pointerEvents=1;dashed=0;fillColor=#036897;strokeColor=#ffffff;strokeWidth=2;verticalLabelPosition=bottom;verticalAlign=top;align=center;outlineConnect=0;" vertex="1" parent="1">
          <mxGeometry x="40" y="200" width="40" height="40" as="geometry" />
        </mxCell>
        <mxCell id="Ideb3Kr1neXmDtbUBlHp-8" value="" style="shape=mxgraph.cisco.computers_and_peripherals.pc;sketch=0;html=1;pointerEvents=1;dashed=0;fillColor=#036897;strokeColor=#ffffff;strokeWidth=2;verticalLabelPosition=bottom;verticalAlign=top;align=center;outlineConnect=0;" vertex="1" parent="1">
          <mxGeometry x="40" y="280" width="40" height="40" as="geometry" />
        </mxCell>
        <mxCell id="Ideb3Kr1neXmDtbUBlHp-9" value="" style="shape=mxgraph.cisco.computers_and_peripherals.pc;sketch=0;html=1;pointerEvents=1;dashed=0;fillColor=#036897;strokeColor=#ffffff;strokeWidth=2;verticalLabelPosition=bottom;verticalAlign=top;align=center;outlineConnect=0;" vertex="1" parent="1">
          <mxGeometry x="40" y="360" width="40" height="40" as="geometry" />
        </mxCell>
        <mxCell id="Ideb3Kr1neXmDtbUBlHp-10" value="" style="shape=mxgraph.cisco.computers_and_peripherals.pc;sketch=0;html=1;pointerEvents=1;dashed=0;fillColor=#036897;strokeColor=#ffffff;strokeWidth=2;verticalLabelPosition=bottom;verticalAlign=top;align=center;outlineConnect=0;" vertex="1" parent="1">
          <mxGeometry x="40" y="440" width="40" height="40" as="geometry" />
        </mxCell>
        <mxCell id="Ideb3Kr1neXmDtbUBlHp-11" value="" style="shape=mxgraph.cisco.computers_and_peripherals.pc;sketch=0;html=1;pointerEvents=1;dashed=0;fillColor=#036897;strokeColor=#ffffff;strokeWidth=2;verticalLabelPosition=bottom;verticalAlign=top;align=center;outlineConnect=0;" vertex="1" parent="1">
          <mxGeometry x="40" y="520" width="40" height="40" as="geometry" />
        </mxCell>
        <mxCell id="Ideb3Kr1neXmDtbUBlHp-12" value="" style="shape=mxgraph.cisco.computers_and_peripherals.pc;sketch=0;html=1;pointerEvents=1;dashed=0;fillColor=#036897;strokeColor=#ffffff;strokeWidth=2;verticalLabelPosition=bottom;verticalAlign=top;align=center;outlineConnect=0;" vertex="1" parent="1">
          <mxGeometry x="40" y="600" width="40" height="40" as="geometry" />
        </mxCell>
        <mxCell id="Ideb3Kr1neXmDtbUBlHp-13" value="" style="shape=mxgraph.cisco.computers_and_peripherals.pc;sketch=0;html=1;pointerEvents=1;dashed=0;fillColor=#036897;strokeColor=#ffffff;strokeWidth=2;verticalLabelPosition=bottom;verticalAlign=top;align=center;outlineConnect=0;" vertex="1" parent="1">
          <mxGeometry x="40" y="760" width="40" height="40" as="geometry" />
        </mxCell>
        <mxCell id="Ideb3Kr1neXmDtbUBlHp-14" value="" style="shape=mxgraph.cisco.computers_and_peripherals.pc;sketch=0;html=1;pointerEvents=1;dashed=0;fillColor=#036897;strokeColor=#ffffff;strokeWidth=2;verticalLabelPosition=bottom;verticalAlign=top;align=center;outlineConnect=0;" vertex="1" parent="1">
          <mxGeometry x="40" y="680" width="40" height="40" as="geometry" />
        </mxCell>
        <mxCell id="Ideb3Kr1neXmDtbUBlHp-15" value="" style="shape=mxgraph.cisco.computers_and_peripherals.pc;sketch=0;html=1;pointerEvents=1;dashed=0;fillColor=#036897;strokeColor=#ffffff;strokeWidth=2;verticalLabelPosition=bottom;verticalAlign=top;align=center;outlineConnect=0;" vertex="1" parent="1">
          <mxGeometry x="1080" y="40" width="40" height="40" as="geometry" />
        </mxCell>
        <mxCell id="Ideb3Kr1neXmDtbUBlHp-16" value="" style="shape=mxgraph.cisco.computers_and_peripherals.pc;sketch=0;html=1;pointerEvents=1;dashed=0;fillColor=#036897;strokeColor=#ffffff;strokeWidth=2;verticalLabelPosition=bottom;verticalAlign=top;align=center;outlineConnect=0;" vertex="1" parent="1">
          <mxGeometry x="1080" y="120" width="40" height="40" as="geometry" />
        </mxCell>
        <mxCell id="Ideb3Kr1neXmDtbUBlHp-17" value="" style="shape=mxgraph.cisco.computers_and_peripherals.pc;sketch=0;html=1;pointerEvents=1;dashed=0;fillColor=#036897;strokeColor=#ffffff;strokeWidth=2;verticalLabelPosition=bottom;verticalAlign=top;align=center;outlineConnect=0;" vertex="1" parent="1">
          <mxGeometry x="1080" y="200" width="40" height="40" as="geometry" />
        </mxCell>
        <mxCell id="Ideb3Kr1neXmDtbUBlHp-18" value="" style="shape=mxgraph.cisco.computers_and_peripherals.pc;sketch=0;html=1;pointerEvents=1;dashed=0;fillColor=#036897;strokeColor=#ffffff;strokeWidth=2;verticalLabelPosition=bottom;verticalAlign=top;align=center;outlineConnect=0;" vertex="1" parent="1">
          <mxGeometry x="1080" y="280" width="40" height="40" as="geometry" />
        </mxCell>
        <mxCell id="Ideb3Kr1neXmDtbUBlHp-19" value="" style="shape=mxgraph.cisco.computers_and_peripherals.pc;sketch=0;html=1;pointerEvents=1;dashed=0;fillColor=#036897;strokeColor=#ffffff;strokeWidth=2;verticalLabelPosition=bottom;verticalAlign=top;align=center;outlineConnect=0;" vertex="1" parent="1">
          <mxGeometry x="1080" y="360" width="40" height="40" as="geometry" />
        </mxCell>
        <mxCell id="Ideb3Kr1neXmDtbUBlHp-20" value="" style="shape=mxgraph.cisco.computers_and_peripherals.pc;sketch=0;html=1;pointerEvents=1;dashed=0;fillColor=#036897;strokeColor=#ffffff;strokeWidth=2;verticalLabelPosition=bottom;verticalAlign=top;align=center;outlineConnect=0;" vertex="1" parent="1">
          <mxGeometry x="1080" y="440" width="40" height="40" as="geometry" />
        </mxCell>
        <mxCell id="Ideb3Kr1neXmDtbUBlHp-21" value="" style="shape=mxgraph.cisco.computers_and_peripherals.pc;sketch=0;html=1;pointerEvents=1;dashed=0;fillColor=#036897;strokeColor=#ffffff;strokeWidth=2;verticalLabelPosition=bottom;verticalAlign=top;align=center;outlineConnect=0;" vertex="1" parent="1">
          <mxGeometry x="1080" y="520" width="40" height="40" as="geometry" />
        </mxCell>
        <mxCell id="Ideb3Kr1neXmDtbUBlHp-22" value="" style="shape=mxgraph.cisco.computers_and_peripherals.pc;sketch=0;html=1;pointerEvents=1;dashed=0;fillColor=#036897;strokeColor=#ffffff;strokeWidth=2;verticalLabelPosition=bottom;verticalAlign=top;align=center;outlineConnect=0;" vertex="1" parent="1">
          <mxGeometry x="1080" y="600" width="40" height="40" as="geometry" />
        </mxCell>
        <mxCell id="Ideb3Kr1neXmDtbUBlHp-23" value="" style="shape=mxgraph.cisco.computers_and_peripherals.pc;sketch=0;html=1;pointerEvents=1;dashed=0;fillColor=#036897;strokeColor=#ffffff;strokeWidth=2;verticalLabelPosition=bottom;verticalAlign=top;align=center;outlineConnect=0;" vertex="1" parent="1">
          <mxGeometry x="1080" y="680" width="40" height="40" as="geometry" />
        </mxCell>
        <mxCell id="Ideb3Kr1neXmDtbUBlHp-24" value="" style="shape=mxgraph.cisco.computers_and_peripherals.pc;sketch=0;html=1;pointerEvents=1;dashed=0;fillColor=#036897;strokeColor=#ffffff;strokeWidth=2;verticalLabelPosition=bottom;verticalAlign=top;align=center;outlineConnect=0;" vertex="1" parent="1">
          <mxGeometry x="1080" y="760" width="40" height="40" as="geometry" />
        </mxCell>
        <mxCell id="Ideb3Kr1neXmDtbUBlHp-29" value="" style="line;strokeWidth=2;html=1;" vertex="1" parent="1">
          <mxGeometry x="80" y="70" width="160" height="10" as="geometry" />
        </mxCell>
        <mxCell id="Ideb3Kr1neXmDtbUBlHp-30" value="" style="line;strokeWidth=2;html=1;" vertex="1" parent="1">
          <mxGeometry x="80" y="150" width="160" height="10" as="geometry" />
        </mxCell>
        <mxCell id="Ideb3Kr1neXmDtbUBlHp-31" value="" style="line;strokeWidth=2;html=1;" vertex="1" parent="1">
          <mxGeometry x="80" y="230" width="160" height="10" as="geometry" />
        </mxCell>
        <mxCell id="Ideb3Kr1neXmDtbUBlHp-32" value="" style="line;strokeWidth=2;html=1;" vertex="1" parent="1">
          <mxGeometry x="80" y="310" width="160" height="10" as="geometry" />
        </mxCell>
        <mxCell id="Ideb3Kr1neXmDtbUBlHp-33" value="" style="line;strokeWidth=2;html=1;" vertex="1" parent="1">
          <mxGeometry x="80" y="385" width="160" height="10" as="geometry" />
        </mxCell>
        <mxCell id="Ideb3Kr1neXmDtbUBlHp-34" value="" style="line;strokeWidth=2;html=1;" vertex="1" parent="1">
          <mxGeometry x="80" y="470" width="160" height="10" as="geometry" />
        </mxCell>
        <mxCell id="Ideb3Kr1neXmDtbUBlHp-35" value="" style="line;strokeWidth=2;html=1;" vertex="1" parent="1">
          <mxGeometry x="80" y="550" width="160" height="10" as="geometry" />
        </mxCell>
        <mxCell id="Ideb3Kr1neXmDtbUBlHp-36" value="" style="line;strokeWidth=2;html=1;" vertex="1" parent="1">
          <mxGeometry x="80" y="630" width="160" height="10" as="geometry" />
        </mxCell>
        <mxCell id="Ideb3Kr1neXmDtbUBlHp-37" value="" style="line;strokeWidth=2;html=1;" vertex="1" parent="1">
          <mxGeometry x="80" y="710" width="160" height="10" as="geometry" />
        </mxCell>
        <mxCell id="Ideb3Kr1neXmDtbUBlHp-38" value="" style="line;strokeWidth=2;html=1;" vertex="1" parent="1">
          <mxGeometry x="80" y="790" width="160" height="10" as="geometry" />
        </mxCell>
        <mxCell id="Ideb3Kr1neXmDtbUBlHp-39" value="" style="line;strokeWidth=2;html=1;" vertex="1" parent="1">
          <mxGeometry x="920" y="70" width="160" height="10" as="geometry" />
        </mxCell>
        <mxCell id="Ideb3Kr1neXmDtbUBlHp-40" value="" style="line;strokeWidth=2;html=1;" vertex="1" parent="1">
          <mxGeometry x="920" y="150" width="160" height="10" as="geometry" />
        </mxCell>
        <mxCell id="Ideb3Kr1neXmDtbUBlHp-41" value="" style="line;strokeWidth=2;html=1;" vertex="1" parent="1">
          <mxGeometry x="920" y="230" width="160" height="10" as="geometry" />
        </mxCell>
        <mxCell id="Ideb3Kr1neXmDtbUBlHp-42" value="" style="line;strokeWidth=2;html=1;" vertex="1" parent="1">
          <mxGeometry x="920" y="310" width="160" height="10" as="geometry" />
        </mxCell>
        <mxCell id="Ideb3Kr1neXmDtbUBlHp-43" value="" style="line;strokeWidth=2;html=1;" vertex="1" parent="1">
          <mxGeometry x="920" y="390" width="160" height="10" as="geometry" />
        </mxCell>
        <mxCell id="Ideb3Kr1neXmDtbUBlHp-44" value="" style="line;strokeWidth=2;html=1;" vertex="1" parent="1">
          <mxGeometry x="920" y="470" width="160" height="10" as="geometry" />
        </mxCell>
        <mxCell id="Ideb3Kr1neXmDtbUBlHp-45" value="" style="line;strokeWidth=2;html=1;" vertex="1" parent="1">
          <mxGeometry x="920" y="550" width="160" height="10" as="geometry" />
        </mxCell>
        <mxCell id="Ideb3Kr1neXmDtbUBlHp-48" value="" style="line;strokeWidth=2;html=1;" vertex="1" parent="1">
          <mxGeometry x="920" y="630" width="160" height="10" as="geometry" />
        </mxCell>
        <mxCell id="Ideb3Kr1neXmDtbUBlHp-49" value="" style="line;strokeWidth=2;html=1;" vertex="1" parent="1">
          <mxGeometry x="920" y="710" width="160" height="10" as="geometry" />
        </mxCell>
        <mxCell id="Ideb3Kr1neXmDtbUBlHp-50" value="" style="line;strokeWidth=2;html=1;" vertex="1" parent="1">
          <mxGeometry x="920" y="790" width="160" height="10" as="geometry" />
        </mxCell>
        <mxCell id="Ideb3Kr1neXmDtbUBlHp-53" value="" style="line;strokeWidth=2;direction=south;html=1;" vertex="1" parent="1">
          <mxGeometry x="240" y="75" width="10" height="725" as="geometry" />
        </mxCell>
        <mxCell id="Ideb3Kr1neXmDtbUBlHp-54" value="" style="line;strokeWidth=2;direction=south;html=1;" vertex="1" parent="1">
          <mxGeometry x="910" y="75" width="10" height="725" as="geometry" />
        </mxCell>
        <mxCell id="Ideb3Kr1neXmDtbUBlHp-56" value="" style="line;strokeWidth=2;html=1;" vertex="1" parent="1">
          <mxGeometry x="250" y="375" width="120" height="10" as="geometry" />
        </mxCell>
        <mxCell id="Ideb3Kr1neXmDtbUBlHp-59" value="" style="line;strokeWidth=2;html=1;" vertex="1" parent="1">
          <mxGeometry x="430" y="375" width="110" height="10" as="geometry" />
        </mxCell>
        <mxCell id="Ideb3Kr1neXmDtbUBlHp-60" value="" style="line;strokeWidth=2;html=1;" vertex="1" parent="1">
          <mxGeometry x="780" y="375" width="130" height="10" as="geometry" />
        </mxCell>
        <mxCell id="Ideb3Kr1neXmDtbUBlHp-61" value="" style="line;strokeWidth=2;html=1;" vertex="1" parent="1">
          <mxGeometry x="598" y="375" width="122" height="10" as="geometry" />
        </mxCell>
        <mxCell id="Ideb3Kr1neXmDtbUBlHp-84" value="&lt;ol&gt;&lt;li&gt;172.100.0.2/24&lt;/li&gt;&lt;li&gt;2001:DB8:ACAD:1:260:5CFF:FED1:419&lt;/li&gt;&lt;li&gt;FE80::260:5CFF:FED1:419&lt;/li&gt;&lt;/ol&gt;" style="text;strokeColor=none;fillColor=none;html=1;whiteSpace=wrap;verticalAlign=middle;overflow=hidden;" vertex="1" parent="1">
          <mxGeometry x="-260" width="260" height="80" as="geometry" />
        </mxCell>
        <mxCell id="Ideb3Kr1neXmDtbUBlHp-85" value="&lt;ol&gt;&lt;li&gt;172.100.0.3/24&lt;/li&gt;&lt;li&gt;2001:DB8:ACAD:1:250:FFF:FEC1:C139&lt;/li&gt;&lt;li&gt;FE80::250:FFF:FEC1:C139&lt;/li&gt;&lt;/ol&gt;" style="text;strokeColor=none;fillColor=none;html=1;whiteSpace=wrap;verticalAlign=middle;overflow=hidden;" vertex="1" parent="1">
          <mxGeometry x="-260" y="80" width="260" height="80" as="geometry" />
        </mxCell>
        <mxCell id="Ideb3Kr1neXmDtbUBlHp-86" value="&lt;ol&gt;&lt;li&gt;172.100.0.4/24&lt;/li&gt;&lt;li&gt;2001:DB8:ACAD:1:201:C9FF:FE03:431A&lt;/li&gt;&lt;li&gt;FE80::201:C9FF:FE03:431A&lt;/li&gt;&lt;/ol&gt;" style="text;strokeColor=none;fillColor=none;html=1;whiteSpace=wrap;verticalAlign=middle;overflow=hidden;" vertex="1" parent="1">
          <mxGeometry x="-270" y="160" width="270" height="80" as="geometry" />
        </mxCell>
        <mxCell id="Ideb3Kr1neXmDtbUBlHp-87" value="&lt;ol&gt;&lt;li&gt;172.100.0.5/24&lt;/li&gt;&lt;li&gt;2001:DB8:ACAD:1:20A:F3FF:FEBC:2265&lt;/li&gt;&lt;li&gt;&lt;span style=&quot;background-color: initial;&quot;&gt;FE80::20A:F3FF:FEBC:2265&lt;/span&gt;&lt;br&gt;&lt;/li&gt;&lt;/ol&gt;" style="text;strokeColor=none;fillColor=none;html=1;whiteSpace=wrap;verticalAlign=middle;overflow=hidden;" vertex="1" parent="1">
          <mxGeometry x="-270" y="240" width="270" height="80" as="geometry" />
        </mxCell>
        <mxCell id="Ideb3Kr1neXmDtbUBlHp-88" value="&lt;ol&gt;&lt;li&gt;172.100.0.6/24&lt;/li&gt;&lt;li&gt;2001:DB8:ACAD:1:201:C9FF:FE57:69B8&lt;/li&gt;&lt;li&gt;FE80::201:C9FF:FE57:69B8&lt;/li&gt;&lt;/ol&gt;" style="text;strokeColor=none;fillColor=none;html=1;whiteSpace=wrap;verticalAlign=middle;overflow=hidden;" vertex="1" parent="1">
          <mxGeometry x="-270" y="320" width="270" height="80" as="geometry" />
        </mxCell>
        <mxCell id="Ideb3Kr1neXmDtbUBlHp-89" value="&lt;ol&gt;&lt;li&gt;172.100.0.7/24&lt;/li&gt;&lt;li&gt;2001:DB8:ACAD:1:201:64FF:FEA1:1A80&lt;/li&gt;&lt;li&gt;FE80::201:64FF:FEA1:1A80&lt;/li&gt;&lt;/ol&gt;" style="text;strokeColor=none;fillColor=none;html=1;whiteSpace=wrap;verticalAlign=middle;overflow=hidden;" vertex="1" parent="1">
          <mxGeometry x="-270" y="400" width="270" height="80" as="geometry" />
        </mxCell>
        <mxCell id="Ideb3Kr1neXmDtbUBlHp-90" value="&lt;ol&gt;&lt;li&gt;172.100.0.8/24&lt;/li&gt;&lt;li&gt;2001:DB8:ACAD:1:201:64FF:FE11:4C19&lt;/li&gt;&lt;li&gt;FE80::201:64FF:FE11:4C19&lt;/li&gt;&lt;/ol&gt;" style="text;strokeColor=none;fillColor=none;html=1;whiteSpace=wrap;verticalAlign=middle;overflow=hidden;" vertex="1" parent="1">
          <mxGeometry x="-270" y="477.5" width="270" height="80" as="geometry" />
        </mxCell>
        <mxCell id="Ideb3Kr1neXmDtbUBlHp-91" value="&lt;ol&gt;&lt;li&gt;172.100.0.9/24&lt;/li&gt;&lt;li&gt;2001:DB8:ACAD:1:2E0:8FFF:FEBB:C681&lt;/li&gt;&lt;li&gt;FE80::2E0:8FFF:FEBB:C681&lt;/li&gt;&lt;/ol&gt;" style="text;strokeColor=none;fillColor=none;html=1;whiteSpace=wrap;verticalAlign=middle;overflow=hidden;" vertex="1" parent="1">
          <mxGeometry x="-270" y="560" width="270" height="80" as="geometry" />
        </mxCell>
        <mxCell id="Ideb3Kr1neXmDtbUBlHp-92" value="&lt;ol&gt;&lt;li&gt;172.100.0.10/24&lt;/li&gt;&lt;li&gt;2001:DB8:ACAD:1:205:5EFF:FE52:1B5E&lt;br&gt;&lt;/li&gt;&lt;li&gt;FE80::205:5EFF:FE52:1B5E&lt;/li&gt;&lt;/ol&gt;" style="text;strokeColor=none;fillColor=none;html=1;whiteSpace=wrap;verticalAlign=middle;overflow=hidden;" vertex="1" parent="1">
          <mxGeometry x="-270" y="640" width="270" height="80" as="geometry" />
        </mxCell>
        <mxCell id="Ideb3Kr1neXmDtbUBlHp-93" value="&lt;ol&gt;&lt;li&gt;172.100.0.11/24&lt;/li&gt;&lt;li&gt;2001:DB8:ACAD:1:230:A3FF:FE98:759E&lt;br&gt;&lt;/li&gt;&lt;li&gt;FE80::230:A3FF:FE98:759E&lt;/li&gt;&lt;/ol&gt;" style="text;strokeColor=none;fillColor=none;html=1;whiteSpace=wrap;verticalAlign=middle;overflow=hidden;" vertex="1" parent="1">
          <mxGeometry x="-270" y="720" width="270" height="80" as="geometry" />
        </mxCell>
        <mxCell id="Ideb3Kr1neXmDtbUBlHp-94" value="&lt;ol&gt;&lt;li&gt;10.0.0.11/24&lt;/li&gt;&lt;li&gt;2001:DB8:ACAD:2:201:43FF:FEEE:6CE4&lt;/li&gt;&lt;li&gt;FE80::201:43FF:FEEE:6CE4&lt;/li&gt;&lt;/ol&gt;" style="text;strokeColor=none;fillColor=none;html=1;whiteSpace=wrap;verticalAlign=middle;overflow=hidden;" vertex="1" parent="1">
          <mxGeometry x="1112" y="720" width="288" height="80" as="geometry" />
        </mxCell>
        <mxCell id="Ideb3Kr1neXmDtbUBlHp-95" value="&lt;ol&gt;&lt;li&gt;10.0.0.10/24&lt;/li&gt;&lt;li&gt;2001:DB8:ACAD:2:20C:CFFF:FE28:CE35&lt;/li&gt;&lt;li&gt;FE80::20C:CFFF:FE28:CE35&lt;/li&gt;&lt;/ol&gt;" style="text;strokeColor=none;fillColor=none;html=1;whiteSpace=wrap;verticalAlign=middle;overflow=hidden;" vertex="1" parent="1">
          <mxGeometry x="1112" y="640" width="288" height="80" as="geometry" />
        </mxCell>
        <mxCell id="Ideb3Kr1neXmDtbUBlHp-96" value="&lt;ol&gt;&lt;li&gt;10.0.0.9/24&lt;/li&gt;&lt;li&gt;2001:DB8:ACAD:2:230:A3FF:FEB3:3C47&lt;br&gt;&lt;/li&gt;&lt;li&gt;FE80::230:A3FF:FEB3:3C47&lt;/li&gt;&lt;/ol&gt;" style="text;strokeColor=none;fillColor=none;html=1;whiteSpace=wrap;verticalAlign=middle;overflow=hidden;" vertex="1" parent="1">
          <mxGeometry x="1112" y="557.5" width="288" height="80" as="geometry" />
        </mxCell>
        <mxCell id="Ideb3Kr1neXmDtbUBlHp-97" value="&lt;ol&gt;&lt;li&gt;10.0.0.8/24&lt;/li&gt;&lt;li&gt;2001:DB8:ACAD:2:201:C7FF:FEC9:8ED2&lt;br&gt;&lt;/li&gt;&lt;li&gt;FE80::201:C7FF:FEC9:8ED2&lt;/li&gt;&lt;/ol&gt;" style="text;strokeColor=none;fillColor=none;html=1;whiteSpace=wrap;verticalAlign=middle;overflow=hidden;" vertex="1" parent="1">
          <mxGeometry x="1112" y="480" width="280" height="80" as="geometry" />
        </mxCell>
        <mxCell id="Ideb3Kr1neXmDtbUBlHp-98" value="&lt;ol&gt;&lt;li&gt;10.0.0.7/24&lt;/li&gt;&lt;li&gt;2001:DB8:ACAD:2:202:4AFF:FE43:963D&lt;br&gt;&lt;/li&gt;&lt;li&gt;FE80::202:4AFF:FE43:963D&lt;/li&gt;&lt;/ol&gt;" style="text;strokeColor=none;fillColor=none;html=1;whiteSpace=wrap;verticalAlign=middle;overflow=hidden;" vertex="1" parent="1">
          <mxGeometry x="1109" y="400" width="280" height="80" as="geometry" />
        </mxCell>
        <mxCell id="Ideb3Kr1neXmDtbUBlHp-99" value="&lt;ol&gt;&lt;li&gt;10.0.0.6/24&lt;/li&gt;&lt;li&gt;2001:DB8:ACAD:2:290:21FF:FE24:240C&lt;br&gt;&lt;/li&gt;&lt;li&gt;FE80::290:21FF:FE24:240C&lt;/li&gt;&lt;/ol&gt;" style="text;strokeColor=none;fillColor=none;html=1;whiteSpace=wrap;verticalAlign=middle;overflow=hidden;" vertex="1" parent="1">
          <mxGeometry x="1109" y="320" width="288" height="80" as="geometry" />
        </mxCell>
        <mxCell id="Ideb3Kr1neXmDtbUBlHp-100" value="&lt;ol&gt;&lt;li&gt;10.0.0.5/24&lt;/li&gt;&lt;li&gt;2001:DB8:ACAD:2:2D0:BCFF:FEAD:2B0C&lt;br&gt;&lt;/li&gt;&lt;li&gt;FE80::2D0:BCFF:FEAD:2B0C&lt;/li&gt;&lt;/ol&gt;" style="text;strokeColor=none;fillColor=none;html=1;whiteSpace=wrap;verticalAlign=middle;overflow=hidden;" vertex="1" parent="1">
          <mxGeometry x="1110" y="240" width="290" height="80" as="geometry" />
        </mxCell>
        <mxCell id="Ideb3Kr1neXmDtbUBlHp-101" value="&lt;ol&gt;&lt;li&gt;10.0.0.4/24&lt;/li&gt;&lt;li&gt;2001:DB8:ACAD:2:2D0:D3FF:FEAC:C2A6&lt;br&gt;&lt;/li&gt;&lt;li&gt;FE80::2D0:D3FF:FEAC:C2A6&lt;/li&gt;&lt;/ol&gt;" style="text;strokeColor=none;fillColor=none;html=1;whiteSpace=wrap;verticalAlign=middle;overflow=hidden;" vertex="1" parent="1">
          <mxGeometry x="1109" y="160" width="291" height="80" as="geometry" />
        </mxCell>
        <mxCell id="Ideb3Kr1neXmDtbUBlHp-102" value="&lt;ol&gt;&lt;li&gt;10.0.0.3/24&lt;/li&gt;&lt;li&gt;2001:DB8:ACAD:2:209:7CFF:FECD:DE60&lt;br&gt;&lt;/li&gt;&lt;li&gt;FE80::209:7CFF:FECD:DE60&lt;/li&gt;&lt;/ol&gt;" style="text;strokeColor=none;fillColor=none;html=1;whiteSpace=wrap;verticalAlign=middle;overflow=hidden;" vertex="1" parent="1">
          <mxGeometry x="1109" y="80" width="291" height="80" as="geometry" />
        </mxCell>
        <mxCell id="Ideb3Kr1neXmDtbUBlHp-103" value="&lt;ol&gt;&lt;li&gt;10.0.0.2/24&lt;/li&gt;&lt;li&gt;2001:DB8:ACAD:2:230:F2FF:FE04:10D9&lt;br&gt;&lt;/li&gt;&lt;li&gt;FE80::230:F2FF:FE04:10D9&lt;/li&gt;&lt;/ol&gt;" style="text;strokeColor=none;fillColor=none;html=1;whiteSpace=wrap;verticalAlign=middle;overflow=hidden;" vertex="1" parent="1">
          <mxGeometry x="1110" width="290" height="80" as="geometry" />
        </mxCell>
        <mxCell id="Ideb3Kr1neXmDtbUBlHp-104" value="Router" style="text;strokeColor=none;fillColor=none;html=1;fontSize=15;fontStyle=1;verticalAlign=middle;align=center;" vertex="1" parent="1">
          <mxGeometry x="520" y="320" width="100" height="40" as="geometry" />
        </mxCell>
        <mxCell id="Ideb3Kr1neXmDtbUBlHp-105" value="Switch 01" style="text;strokeColor=none;fillColor=none;html=1;fontSize=15;fontStyle=1;verticalAlign=middle;align=center;" vertex="1" parent="1">
          <mxGeometry x="390" y="330" width="40" height="30" as="geometry" />
        </mxCell>
        <mxCell id="Ideb3Kr1neXmDtbUBlHp-106" value="Switch 02" style="text;strokeColor=none;fillColor=none;html=1;fontSize=15;fontStyle=1;verticalAlign=middle;align=center;" vertex="1" parent="1">
          <mxGeometry x="700" y="320" width="100" height="40" as="geometry" />
        </mxCell>
        <mxCell id="Ideb3Kr1neXmDtbUBlHp-108" value="PC01" style="text;strokeColor=none;fillColor=none;html=1;fontSize=12;fontStyle=1;verticalAlign=middle;align=center;" vertex="1" parent="1">
          <mxGeometry x="80" y="35" width="100" height="40" as="geometry" />
        </mxCell>
        <mxCell id="Ideb3Kr1neXmDtbUBlHp-109" value="PC02" style="text;strokeColor=none;fillColor=none;html=1;fontSize=12;fontStyle=1;verticalAlign=middle;align=center;" vertex="1" parent="1">
          <mxGeometry x="80" y="120" width="100" height="40" as="geometry" />
        </mxCell>
        <mxCell id="Ideb3Kr1neXmDtbUBlHp-110" value="PC03" style="text;strokeColor=none;fillColor=none;html=1;fontSize=12;fontStyle=1;verticalAlign=middle;align=center;" vertex="1" parent="1">
          <mxGeometry x="80" y="200" width="100" height="40" as="geometry" />
        </mxCell>
        <mxCell id="Ideb3Kr1neXmDtbUBlHp-112" value="PC04" style="text;strokeColor=none;fillColor=none;html=1;fontSize=12;fontStyle=1;verticalAlign=middle;align=center;" vertex="1" parent="1">
          <mxGeometry x="80" y="277.5" width="100" height="40" as="geometry" />
        </mxCell>
        <mxCell id="Ideb3Kr1neXmDtbUBlHp-113" value="PC05" style="text;strokeColor=none;fillColor=none;html=1;fontSize=12;fontStyle=1;verticalAlign=middle;align=center;" vertex="1" parent="1">
          <mxGeometry x="80" y="350" width="100" height="40" as="geometry" />
        </mxCell>
        <mxCell id="Ideb3Kr1neXmDtbUBlHp-114" value="PC06" style="text;strokeColor=none;fillColor=none;html=1;fontSize=12;fontStyle=1;verticalAlign=middle;align=center;" vertex="1" parent="1">
          <mxGeometry x="80" y="430" width="100" height="40" as="geometry" />
        </mxCell>
        <mxCell id="Ideb3Kr1neXmDtbUBlHp-115" value="PC07" style="text;strokeColor=none;fillColor=none;html=1;fontSize=12;fontStyle=1;verticalAlign=middle;align=center;" vertex="1" parent="1">
          <mxGeometry x="80" y="510" width="100" height="40" as="geometry" />
        </mxCell>
        <mxCell id="Ideb3Kr1neXmDtbUBlHp-116" value="PC08" style="text;strokeColor=none;fillColor=none;html=1;fontSize=12;fontStyle=1;verticalAlign=middle;align=center;" vertex="1" parent="1">
          <mxGeometry x="80" y="590" width="100" height="40" as="geometry" />
        </mxCell>
        <mxCell id="Ideb3Kr1neXmDtbUBlHp-117" value="PC09" style="text;strokeColor=none;fillColor=none;html=1;fontSize=12;fontStyle=1;verticalAlign=middle;align=center;" vertex="1" parent="1">
          <mxGeometry x="80" y="670" width="100" height="40" as="geometry" />
        </mxCell>
        <mxCell id="Ideb3Kr1neXmDtbUBlHp-118" value="PC10" style="text;strokeColor=none;fillColor=none;html=1;fontSize=12;fontStyle=1;verticalAlign=middle;align=center;" vertex="1" parent="1">
          <mxGeometry x="70" y="760" width="100" height="40" as="geometry" />
        </mxCell>
        <mxCell id="Ideb3Kr1neXmDtbUBlHp-119" value="PC11" style="text;strokeColor=none;fillColor=none;html=1;fontSize=12;fontStyle=1;verticalAlign=middle;align=center;" vertex="1" parent="1">
          <mxGeometry x="980" y="35" width="100" height="40" as="geometry" />
        </mxCell>
        <mxCell id="Ideb3Kr1neXmDtbUBlHp-120" value="PC12" style="text;strokeColor=none;fillColor=none;html=1;fontSize=12;fontStyle=1;verticalAlign=middle;align=center;" vertex="1" parent="1">
          <mxGeometry x="980" y="110" width="100" height="40" as="geometry" />
        </mxCell>
        <mxCell id="Ideb3Kr1neXmDtbUBlHp-121" value="PC13" style="text;strokeColor=none;fillColor=none;html=1;fontSize=12;fontStyle=1;verticalAlign=middle;align=center;" vertex="1" parent="1">
          <mxGeometry x="980" y="190" width="100" height="40" as="geometry" />
        </mxCell>
        <mxCell id="Ideb3Kr1neXmDtbUBlHp-122" value="PC14" style="text;strokeColor=none;fillColor=none;html=1;fontSize=12;fontStyle=1;verticalAlign=middle;align=center;" vertex="1" parent="1">
          <mxGeometry x="980" y="270" width="100" height="40" as="geometry" />
        </mxCell>
        <mxCell id="Ideb3Kr1neXmDtbUBlHp-123" value="PC15" style="text;strokeColor=none;fillColor=none;html=1;fontSize=12;fontStyle=1;verticalAlign=middle;align=center;" vertex="1" parent="1">
          <mxGeometry x="980" y="335" width="100" height="60" as="geometry" />
        </mxCell>
        <mxCell id="Ideb3Kr1neXmDtbUBlHp-124" value="PC16" style="text;strokeColor=none;fillColor=none;html=1;fontSize=12;fontStyle=1;verticalAlign=middle;align=center;" vertex="1" parent="1">
          <mxGeometry x="980" y="430" width="100" height="40" as="geometry" />
        </mxCell>
        <mxCell id="Ideb3Kr1neXmDtbUBlHp-125" value="PC17" style="text;strokeColor=none;fillColor=none;html=1;fontSize=12;fontStyle=1;verticalAlign=middle;align=center;" vertex="1" parent="1">
          <mxGeometry x="980" y="510" width="100" height="40" as="geometry" />
        </mxCell>
        <mxCell id="Ideb3Kr1neXmDtbUBlHp-126" value="PC18" style="text;strokeColor=none;fillColor=none;html=1;fontSize=12;fontStyle=1;verticalAlign=middle;align=center;" vertex="1" parent="1">
          <mxGeometry x="980" y="590" width="100" height="40" as="geometry" />
        </mxCell>
        <mxCell id="Ideb3Kr1neXmDtbUBlHp-127" value="PC19" style="text;strokeColor=none;fillColor=none;html=1;fontSize=12;fontStyle=1;verticalAlign=middle;align=center;" vertex="1" parent="1">
          <mxGeometry x="980" y="670" width="100" height="40" as="geometry" />
        </mxCell>
        <mxCell id="Ideb3Kr1neXmDtbUBlHp-128" value="PC20" style="text;strokeColor=none;fillColor=none;html=1;fontSize=12;fontStyle=1;verticalAlign=middle;align=center;" vertex="1" parent="1">
          <mxGeometry x="980" y="750" width="100" height="40" as="geometry" />
        </mxCell>
        <mxCell id="Ideb3Kr1neXmDtbUBlHp-129" value="FA0/1" style="text;strokeColor=none;fillColor=none;html=1;fontSize=11;fontStyle=1;verticalAlign=middle;align=center;" vertex="1" parent="1">
          <mxGeometry x="220" y="50" width="100" height="40" as="geometry" />
        </mxCell>
        <mxCell id="Ideb3Kr1neXmDtbUBlHp-130" value="FA0/2" style="text;strokeColor=none;fillColor=none;html=1;fontSize=11;fontStyle=1;verticalAlign=middle;align=center;" vertex="1" parent="1">
          <mxGeometry x="220" y="120" width="100" height="40" as="geometry" />
        </mxCell>
        <mxCell id="Ideb3Kr1neXmDtbUBlHp-131" value="FA0/3" style="text;strokeColor=none;fillColor=none;html=1;fontSize=11;fontStyle=1;verticalAlign=middle;align=center;" vertex="1" parent="1">
          <mxGeometry x="220" y="210" width="100" height="40" as="geometry" />
        </mxCell>
        <mxCell id="Ideb3Kr1neXmDtbUBlHp-132" value="FA0/4" style="text;strokeColor=none;fillColor=none;html=1;fontSize=11;fontStyle=1;verticalAlign=middle;align=center;" vertex="1" parent="1">
          <mxGeometry x="220" y="290" width="100" height="40" as="geometry" />
        </mxCell>
        <mxCell id="Ideb3Kr1neXmDtbUBlHp-133" value="FA0/5" style="text;strokeColor=none;fillColor=none;html=1;fontSize=11;fontStyle=1;verticalAlign=middle;align=center;" vertex="1" parent="1">
          <mxGeometry x="220" y="370" width="100" height="40" as="geometry" />
        </mxCell>
        <mxCell id="Ideb3Kr1neXmDtbUBlHp-134" value="FA0/6" style="text;strokeColor=none;fillColor=none;html=1;fontSize=11;fontStyle=1;verticalAlign=middle;align=center;" vertex="1" parent="1">
          <mxGeometry x="220" y="450" width="100" height="40" as="geometry" />
        </mxCell>
        <mxCell id="Ideb3Kr1neXmDtbUBlHp-135" value="FA0/7" style="text;strokeColor=none;fillColor=none;html=1;fontSize=11;fontStyle=1;verticalAlign=middle;align=center;" vertex="1" parent="1">
          <mxGeometry x="220" y="520" width="100" height="40" as="geometry" />
        </mxCell>
        <mxCell id="Ideb3Kr1neXmDtbUBlHp-136" value="FA0/8" style="text;strokeColor=none;fillColor=none;html=1;fontSize=11;fontStyle=1;verticalAlign=middle;align=center;" vertex="1" parent="1">
          <mxGeometry x="220" y="610" width="100" height="40" as="geometry" />
        </mxCell>
        <mxCell id="Ideb3Kr1neXmDtbUBlHp-137" value="FA0/9" style="text;strokeColor=none;fillColor=none;html=1;fontSize=11;fontStyle=1;verticalAlign=middle;align=center;" vertex="1" parent="1">
          <mxGeometry x="220" y="690" width="100" height="40" as="geometry" />
        </mxCell>
        <mxCell id="Ideb3Kr1neXmDtbUBlHp-138" value="FA0/10" style="text;strokeColor=none;fillColor=none;html=1;fontSize=11;fontStyle=1;verticalAlign=middle;align=center;" vertex="1" parent="1">
          <mxGeometry x="220" y="770" width="100" height="40" as="geometry" />
        </mxCell>
        <mxCell id="Ideb3Kr1neXmDtbUBlHp-139" value="FA0/1" style="text;strokeColor=none;fillColor=none;html=1;fontSize=11;fontStyle=1;verticalAlign=middle;align=center;" vertex="1" parent="1">
          <mxGeometry x="840" y="50" width="100" height="40" as="geometry" />
        </mxCell>
        <mxCell id="Ideb3Kr1neXmDtbUBlHp-140" value="FA0/2" style="text;strokeColor=none;fillColor=none;html=1;fontSize=11;fontStyle=1;verticalAlign=middle;align=center;" vertex="1" parent="1">
          <mxGeometry x="840" y="130" width="100" height="40" as="geometry" />
        </mxCell>
        <mxCell id="Ideb3Kr1neXmDtbUBlHp-141" value="FA0/3" style="text;strokeColor=none;fillColor=none;html=1;fontSize=11;fontStyle=1;verticalAlign=middle;align=center;" vertex="1" parent="1">
          <mxGeometry x="840" y="210" width="100" height="40" as="geometry" />
        </mxCell>
        <mxCell id="Ideb3Kr1neXmDtbUBlHp-142" value="FA0/4" style="text;strokeColor=none;fillColor=none;html=1;fontSize=11;fontStyle=1;verticalAlign=middle;align=center;" vertex="1" parent="1">
          <mxGeometry x="840" y="290" width="100" height="40" as="geometry" />
        </mxCell>
        <mxCell id="Ideb3Kr1neXmDtbUBlHp-143" value="FA0/5" style="text;strokeColor=none;fillColor=none;html=1;fontSize=11;fontStyle=1;verticalAlign=middle;align=center;" vertex="1" parent="1">
          <mxGeometry x="840" y="370" width="100" height="40" as="geometry" />
        </mxCell>
        <mxCell id="Ideb3Kr1neXmDtbUBlHp-144" value="FA0/6" style="text;strokeColor=none;fillColor=none;html=1;fontSize=11;fontStyle=1;verticalAlign=middle;align=center;" vertex="1" parent="1">
          <mxGeometry x="840" y="450" width="100" height="40" as="geometry" />
        </mxCell>
        <mxCell id="Ideb3Kr1neXmDtbUBlHp-145" value="FA0/7" style="text;strokeColor=none;fillColor=none;html=1;fontSize=11;fontStyle=1;verticalAlign=middle;align=center;" vertex="1" parent="1">
          <mxGeometry x="840" y="530" width="100" height="40" as="geometry" />
        </mxCell>
        <mxCell id="Ideb3Kr1neXmDtbUBlHp-146" value="FA0/8" style="text;strokeColor=none;fillColor=none;html=1;fontSize=11;fontStyle=1;verticalAlign=middle;align=center;" vertex="1" parent="1">
          <mxGeometry x="840" y="610" width="100" height="40" as="geometry" />
        </mxCell>
        <mxCell id="Ideb3Kr1neXmDtbUBlHp-147" value="FA0/9" style="text;strokeColor=none;fillColor=none;html=1;fontSize=11;fontStyle=1;verticalAlign=middle;align=center;" vertex="1" parent="1">
          <mxGeometry x="840" y="690" width="100" height="40" as="geometry" />
        </mxCell>
        <mxCell id="Ideb3Kr1neXmDtbUBlHp-148" value="FA0/10" style="text;strokeColor=none;fillColor=none;html=1;fontSize=11;fontStyle=1;verticalAlign=middle;align=center;" vertex="1" parent="1">
          <mxGeometry x="840" y="770" width="100" height="40" as="geometry" />
        </mxCell>
        <mxCell id="Ideb3Kr1neXmDtbUBlHp-149" value="Gig0/1" style="text;strokeColor=none;fillColor=none;html=1;fontSize=12;fontStyle=1;verticalAlign=middle;align=center;" vertex="1" parent="1">
          <mxGeometry x="400" y="392.5" width="80" height="15" as="geometry" />
        </mxCell>
        <mxCell id="Ideb3Kr1neXmDtbUBlHp-150" value="Gig0/0/0" style="text;strokeColor=none;fillColor=none;html=1;fontSize=12;fontStyle=1;verticalAlign=middle;align=center;" vertex="1" parent="1">
          <mxGeometry x="480" y="395" width="80" height="10" as="geometry" />
        </mxCell>
        <mxCell id="Ideb3Kr1neXmDtbUBlHp-151" value="Gig0/1" style="text;strokeColor=none;fillColor=none;html=1;fontSize=12;fontStyle=1;verticalAlign=middle;align=center;" vertex="1" parent="1">
          <mxGeometry x="670" y="360" width="80" height="15" as="geometry" />
        </mxCell>
        <mxCell id="Ideb3Kr1neXmDtbUBlHp-152" value="Gig0/0/1" style="text;strokeColor=none;fillColor=none;html=1;fontSize=12;fontStyle=1;verticalAlign=middle;align=center;" vertex="1" parent="1">
          <mxGeometry x="585" y="369" width="80" height="10" as="geometry" />
        </mxCell>
        <mxCell id="Ideb3Kr1neXmDtbUBlHp-153" value="&lt;ul&gt;&lt;li&gt;172.100.0.1/24&lt;/li&gt;&lt;li&gt;FE80::290:CFF:FEE3:8D01&lt;br&gt;&lt;/li&gt;&lt;li&gt;2001:DB8:ACAD:1::1&lt;br&gt;&lt;/li&gt;&lt;/ul&gt;" style="text;strokeColor=none;fillColor=none;html=1;whiteSpace=wrap;verticalAlign=middle;overflow=hidden;" vertex="1" parent="1">
          <mxGeometry x="350" y="257.5" width="220" height="80" as="geometry" />
        </mxCell>
        <mxCell id="Ideb3Kr1neXmDtbUBlHp-154" value="&lt;ul&gt;&lt;li&gt;172.100.0.254/24&lt;/li&gt;&lt;li&gt;&amp;nbsp;FE80::20C:CFFF:FE7B:E8A5&lt;br&gt;&lt;/li&gt;&lt;/ul&gt;" style="text;strokeColor=none;fillColor=none;html=1;whiteSpace=wrap;verticalAlign=middle;overflow=hidden;" vertex="1" parent="1">
          <mxGeometry x="270" y="397.5" width="210" height="80" as="geometry" />
        </mxCell>
        <mxCell id="Ideb3Kr1neXmDtbUBlHp-155" value="&lt;ul&gt;&lt;li&gt;10.0.0.254/24&lt;/li&gt;&lt;li&gt;FE80::202:4AFF:FEE2:2EAD&lt;/li&gt;&lt;/ul&gt;" style="text;strokeColor=none;fillColor=none;html=1;whiteSpace=wrap;verticalAlign=middle;overflow=hidden;" vertex="1" parent="1">
          <mxGeometry x="670" y="397.5" width="205" height="80" as="geometry" />
        </mxCell>
        <mxCell id="Ideb3Kr1neXmDtbUBlHp-156" value="&lt;ul&gt;&lt;li&gt;10.0.0.1/24&lt;/li&gt;&lt;li&gt;FE80::290:CFF:FEE3:8D02&lt;br&gt;&lt;/li&gt;&lt;li&gt;2001:DB8:ACAD:2::1&lt;br&gt;&lt;/li&gt;&lt;/ul&gt;" style="text;strokeColor=none;fillColor=none;html=1;whiteSpace=wrap;verticalAlign=middle;overflow=hidden;" vertex="1" parent="1">
          <mxGeometry x="570" y="270" width="200" height="80" as="geometry" />
        </mxCell>
      </root>
    </mxGraphModel>
  </diagram>
</mxfile>
